<svg xmlns="http://www.w3.org/2000/svg" width="1200" height="630" viewBox="0 0 1200 630" role="img" aria-labelledby="title desc">
  <title id="title">Pondera</title>
  <desc id="desc">Adaptive maths practice that treats mistakes as clues.</desc>
  <defs>
    <pattern id="grid" width="42" height="42" patternUnits="userSpaceOnUse">
      <path d="M42 0H0V42" fill="none" stroke="#d8cbae" stroke-width="1"/>
    </pattern>
    <filter id="shadow" x="-20%" y="-20%" width="140%" height="140%">
      <feDropShadow dx="0" dy="18" stdDeviation="20" flood-color="#17251e" flood-opacity="0.12"/>
    </filter>
  </defs>
  <rect width="1200" height="630" fill="#f7f0df"/>
  <rect width="1200" height="630" fill="url(#grid)" opacity="0.7"/>
  <rect x="76" y="48" width="42" height="42" fill="#dcebdc" stroke="#17251e" stroke-width="3"/><text x="97" y="76" fill="#1e4936" font-family="Consolas, monospace" font-size="15" text-anchor="middle">P</text><text x="134" y="80" fill="#17251e" font-family="Georgia, serif" font-size="34" font-weight="600">Pondera</text>
  <circle cx="78" cy="142" r="5" fill="#b86436"/>
  <text x="94" y="148" fill="#743b20" font-family="Consolas, monospace" font-size="18">adaptive practice, explained plainly</text>
  <text x="76" y="235" fill="#17251e" font-family="Georgia, serif" font-size="76">Adaptive maths</text>
  <text x="76" y="315" fill="#17251e" font-family="Georgia, serif" font-size="76">practice that treats</text>
  <text x="76" y="395" fill="#17251e" font-family="Georgia, serif" font-size="76">mistakes as clues.</text>
  <text x="80" y="462" fill="#3a5147" font-family="Inter, Arial, sans-serif" font-size="25">A connected graph from early number to senior maths</text>
  <text x="80" y="500" fill="#3a5147" font-family="Inter, Arial, sans-serif" font-size="25">helps choose the next useful step.</text>
  <g transform="translate(682 92)" filter="url(#shadow)">
    <rect width="430" height="402" rx="22" fill="#fff9ea" stroke="#d8cbae"/>
    <rect width="430" height="58" rx="22" fill="#fff9ea" stroke="#d8cbae"/>
    <text x="28" y="36" fill="#3a5147" font-family="Inter, Arial, sans-serif" font-size="18" font-weight="700">Fractions</text>
    <rect x="330" y="28" width="20" height="7" rx="3.5" fill="#2f6b4f"/>
    <rect x="358" y="28" width="20" height="7" rx="3.5" fill="#2f6b4f"/>
    <rect x="386" y="28" width="20" height="7" rx="3.5" fill="#d8cbae"/>
    <text x="215" y="128" fill="#3a5147" font-family="Inter, Arial, sans-serif" font-size="44" font-weight="700" text-anchor="middle">1/4 + 2/4</text>
    <g transform="translate(48 176)">
      <rect width="112" height="54" rx="10" fill="#fff9ea" stroke="#17251e" stroke-width="2"/>
      <rect width="28" height="54" fill="#a9d99c"/>
      <path d="M28 0v54M56 0v54M84 0v54" stroke="#9c8f73"/>
    </g>
    <text x="184" y="212" fill="#3a5147" font-family="Georgia, serif" font-size="38">+</text>
    <g transform="translate(222 176)">
      <rect width="112" height="54" rx="10" fill="#fff9ea" stroke="#17251e" stroke-width="2"/>
      <rect width="56" height="54" fill="#91c8ee"/>
      <path d="M28 0v54M56 0v54M84 0v54" stroke="#9c8f73"/>
    </g>
    <rect x="58" y="278" width="314" height="68" rx="13" fill="#f5dfcd"/>
    <text x="82" y="306" fill="#743b20" font-family="Inter, Arial, sans-serif" font-size="17" font-weight="700">Useful mistake: 3/8</text>
    <text x="82" y="332" fill="#743b20" font-family="Inter, Arial, sans-serif" font-size="15">Repair the denominator idea next.</text>
  </g>
  <g transform="translate(690 538)">
    <circle cx="0" cy="0" r="9" fill="#2f6b4f"/>
    <circle cx="34" cy="0" r="9" fill="#2f6b4f"/>
    <circle cx="68" cy="0" r="9" fill="#2f6b4f"/>
    <circle cx="102" cy="0" r="9" fill="#2f6b4f"/>
    <circle cx="136" cy="0" r="9" fill="#2f6b4f"/>
    <circle cx="170" cy="0" r="9" fill="#2f6b4f"/>
    <circle cx="204" cy="0" r="9" fill="#2f6b4f"/>
    <text x="236" y="8" fill="#3a5147" font-family="Inter, Arial, sans-serif" font-size="20">K-12 maths graph</text>
  </g>
</svg>
