<svg xmlns="http://www.w3.org/2000/svg" width="1200" height="630" viewBox="0 0 1200 630" role="img" aria-labelledby="title desc">
  <title id="title">Pondera</title>
  <desc id="desc">A graph-first maths project for curriculum ontology, diagnostics, and evidence trails.</desc>
  <defs>
    <radialGradient id="bg" cx="54%" cy="38%" r="88%">
      <stop offset="0" stop-color="#17364c"/>
      <stop offset="0.52" stop-color="#10283a"/>
      <stop offset="1" stop-color="#07121d"/>
    </radialGradient>
    <linearGradient id="panel" x1="0" x2="1" y1="0" y2="1">
      <stop offset="0" stop-color="#153044" stop-opacity="0.92"/>
      <stop offset="1" stop-color="#081724" stop-opacity="0.96"/>
    </linearGradient>
    <filter id="softGlow" x="-80%" y="-80%" width="260%" height="260%">
      <feGaussianBlur stdDeviation="5" result="blur"/>
      <feMerge>
        <feMergeNode in="blur"/>
        <feMergeNode in="SourceGraphic"/>
      </feMerge>
    </filter>
    <pattern id="grid" width="46" height="46" patternUnits="userSpaceOnUse">
      <path d="M46 0H0V46" fill="none" stroke="#d8eef7" stroke-opacity="0.045" stroke-width="1"/>
    </pattern>
  </defs>

  <rect width="1200" height="630" fill="url(#bg)"/>
  <rect width="1200" height="630" fill="url(#grid)" opacity="0.72"/>

  <g opacity="0.62">
    <circle cx="68" cy="86" r="1.4" fill="#fff5dc"/>
    <circle cx="174" cy="182" r="1.1" fill="#d8eef7"/>
    <circle cx="304" cy="66" r="1.5" fill="#fff5dc"/>
    <circle cx="496" cy="138" r="1.2" fill="#d8eef7"/>
    <circle cx="764" cy="92" r="1.6" fill="#fff5dc"/>
    <circle cx="1088" cy="118" r="1.3" fill="#d8eef7"/>
    <circle cx="1134" cy="344" r="1.5" fill="#fff5dc"/>
    <circle cx="944" cy="548" r="1.1" fill="#d8eef7"/>
    <circle cx="636" cy="568" r="1.4" fill="#fff5dc"/>
    <circle cx="206" cy="524" r="1.1" fill="#d8eef7"/>
  </g>

  <rect x="38" y="34" width="1124" height="562" fill="none" stroke="#d8eef7" stroke-opacity="0.28"/>

  <g transform="translate(72 62)">
    <g transform="scale(0.78)">
      <line x1="22" y1="60" x2="78" y2="38" stroke="#fff5dc" stroke-width="2.75" stroke-linecap="round"/>
      <circle cx="22" cy="60" r="14" fill="#5fc9d6" stroke="#d8eef7" stroke-width="2.25"/>
      <circle cx="22" cy="60" r="5.2" fill="#091522" opacity="0.72"/>
      <circle cx="78" cy="38" r="7.5" fill="#091522" stroke="#e58a5a" stroke-width="2.75"/>
      <circle cx="78" cy="38" r="2.45" fill="#e58a5a"/>
      <polyline points="76,45 68,62 76,68 60,86" fill="none" stroke="#e58a5a" stroke-width="2.35" stroke-linecap="round" stroke-linejoin="round"/>
      <circle cx="60" cy="86" r="5" fill="#091522" stroke="#e58a5a" stroke-width="2.25"/>
    </g>
    <text x="82" y="42" fill="#fff5dc" font-family="Georgia, serif" font-size="38" font-weight="600">Pondera</text>
    <text x="0" y="106" fill="#7dd7e8" font-family="Consolas, monospace" font-size="15" font-weight="700" letter-spacing="2.3">GRAPH-FIRST MATHS PROJECT</text>
  </g>

  <g transform="translate(72 218)">
    <text x="0" y="0" fill="#fff5dc" font-family="Georgia, serif" font-size="62">Curriculum as an</text>
    <text x="0" y="66" fill="#fff5dc" font-family="Georgia, serif" font-size="62">inspectable</text>
    <text x="0" y="132" fill="#fff5dc" font-family="Georgia, serif" font-size="62">knowledge</text>
    <text x="0" y="198" fill="#fff5dc" font-family="Georgia, serif" font-size="62">constellation.</text>
    <text x="2" y="258" fill="#a9b7bc" font-family="Inter, Arial, sans-serif" font-size="22">Graph-first K-12 maths ontology,</text>
    <text x="2" y="288" fill="#a9b7bc" font-family="Inter, Arial, sans-serif" font-size="22">diagnostics, and evidence trails.</text>
  </g>

  <g transform="translate(72 514)">
    <rect x="0" y="0" width="156" height="58" fill="#0b1b29" stroke="#7dd7e8" stroke-opacity="0.5"/>
    <text x="18" y="27" fill="#fff5dc" font-family="Georgia, serif" font-size="25" font-weight="700">2,600+</text>
    <text x="18" y="45" fill="#d8eef7" font-family="Consolas, monospace" font-size="10" letter-spacing="1.4">GRAPH NODES</text>
    <rect x="174" y="0" width="156" height="58" fill="#0b1b29" stroke="#7dd7e8" stroke-opacity="0.5"/>
    <text x="192" y="27" fill="#fff5dc" font-family="Georgia, serif" font-size="25" font-weight="700">4,400+</text>
    <text x="192" y="45" fill="#d8eef7" font-family="Consolas, monospace" font-size="10" letter-spacing="1.4">AUTHORED EDGES</text>
    <rect x="348" y="0" width="156" height="58" fill="#0b1b29" stroke="#7dd7e8" stroke-opacity="0.5"/>
    <text x="366" y="27" fill="#fff5dc" font-family="Georgia, serif" font-size="25" font-weight="700">K-12</text>
    <text x="366" y="45" fill="#d8eef7" font-family="Consolas, monospace" font-size="10" letter-spacing="1.4">MATHS GRAPH</text>
  </g>

  <g transform="translate(642 118)">
    <rect x="0" y="0" width="482" height="398" fill="url(#panel)" stroke="#d8eef7" stroke-opacity="0.28"/>
    <text x="28" y="36" fill="#d8eef7" fill-opacity="0.76" font-family="Consolas, monospace" font-size="12" font-weight="700" letter-spacing="1.7">LOCAL DIAGNOSTIC CONSTELLATION</text>
    <text x="28" y="56" fill="#d8eef7" fill-opacity="0.66" font-family="Consolas, monospace" font-size="11" font-weight="700" letter-spacing="1.5">KNOWLEDGE / SIGNAL / REPAIR</text>
    <line x1="0" y1="70" x2="482" y2="70" stroke="#d8eef7" stroke-opacity="0.16"/>
    <marker id="ogArrowBlue" markerWidth="8" markerHeight="8" refX="7" refY="4" orient="auto">
      <path d="M0,0 L8,4 L0,8 Z" fill="#7dd7e8" opacity="0.72"/>
    </marker>
    <marker id="ogArrowCoral" markerWidth="8" markerHeight="8" refX="7" refY="4" orient="auto">
      <path d="M0,0 L8,4 L0,8 Z" fill="#ff9b73" opacity="0.9"/>
    </marker>
    <marker id="ogArrowViolet" markerWidth="8" markerHeight="8" refX="7" refY="4" orient="auto">
      <path d="M0,0 L8,4 L0,8 Z" fill="#b9a1ff" opacity="0.86"/>
    </marker>
    <marker id="ogArrowGreen" markerWidth="8" markerHeight="8" refX="7" refY="4" orient="auto">
      <path d="M0,0 L8,4 L0,8 Z" fill="#8ee0b0" opacity="0.86"/>
    </marker>

    <text x="28" y="98" fill="#d8eef7" fill-opacity="0.62" font-family="Consolas, monospace" font-size="9" font-weight="700" letter-spacing="1.5">PREREQUISITE KNOWLEDGE</text>
    <line x1="28" y1="108" x2="454" y2="108" stroke="#d8eef7" stroke-opacity="0.1"/>
    <text x="28" y="218" fill="#d8eef7" fill-opacity="0.62" font-family="Consolas, monospace" font-size="9" font-weight="700" letter-spacing="1.5">THIS ATTEMPT</text>
    <line x1="28" y1="228" x2="454" y2="228" stroke="#d8eef7" stroke-opacity="0.1"/>
    <text x="28" y="320" fill="#d8eef7" fill-opacity="0.62" font-family="Consolas, monospace" font-size="9" font-weight="700" letter-spacing="1.5">DIAGNOSIS + REMEDIATION</text>
    <line x1="28" y1="330" x2="454" y2="330" stroke="#d8eef7" stroke-opacity="0.1"/>

    <path d="M84 140 L166 140" fill="none" stroke="#7dd7e8" stroke-width="1.8" marker-end="url(#ogArrowBlue)"/>
    <path d="M214 140 L292 140" fill="none" stroke="#7dd7e8" stroke-width="3.2" marker-end="url(#ogArrowBlue)"/>
    <path d="M330 92 L306 130" fill="none" stroke="#7dd7e8" stroke-opacity="0.34"/>
    <path d="M360 120 L306 138" fill="none" stroke="#7dd7e8" stroke-opacity="0.34"/>
    <path d="M360 164 L306 148" fill="none" stroke="#7dd7e8" stroke-opacity="0.34"/>

    <g filter="url(#softGlow)">
      <circle cx="66" cy="140" r="11" fill="#091522" stroke="#7dd7e8" stroke-width="2"/>
      <circle cx="190" cy="140" r="11" fill="#091522" stroke="#7dd7e8" stroke-width="2"/>
      <circle cx="314" cy="140" r="12" fill="#091522" stroke="#fff5dc" stroke-width="2"/>
      <circle cx="188" cy="292" r="13" fill="#091522" stroke="#ff9b73" stroke-width="2.4"/>
      <circle cx="330" cy="292" r="11" fill="#091522" stroke="#b9a1ff" stroke-width="2"/>
    </g>
    <text x="38" y="166" fill="#d8eef7" font-family="Consolas, monospace" font-size="10" font-weight="700">UNIT FRACTIONS</text>
    <text x="136" y="166" fill="#d8eef7" font-family="Consolas, monospace" font-size="10" font-weight="700">DENOMINATOR MEANING</text>
    <text x="266" y="166" fill="#fff5dc" font-family="Consolas, monospace" font-size="10" font-weight="700">ADD SAME</text>
    <text x="226" y="126" fill="#7dd7e8" font-family="Consolas, monospace" font-size="9" font-weight="700">KEY FIX IDENTIFIED</text>

    <rect x="46" y="244" width="88" height="28" fill="#091522" stroke="#d8eef7" stroke-opacity="0.34"/>
    <text x="62" y="263" fill="#d8eef7" font-family="Consolas, monospace" font-size="10" font-weight="700">1/4 + 2/4</text>
    <path d="M136 258 L188 258" fill="none" stroke="#ff9b73" stroke-width="1.7" marker-end="url(#ogArrowCoral)"/>
    <circle cx="210" cy="258" r="11" fill="#091522" stroke="#ff9b73" stroke-width="2"/>
    <text x="194" y="282" fill="#ffbea3" font-family="Consolas, monospace" font-size="9" font-weight="700">3/8 GIVEN</text>
    <path d="M224 258 L350 258" fill="none" stroke="#d8eef7" stroke-opacity="0.34" stroke-dasharray="3 6" marker-end="url(#ogArrowBlue)"/>
    <circle cx="374" cy="258" r="11" fill="#091522" stroke="#8ee0b0" stroke-width="2"/>
    <text x="350" y="282" fill="#8ee0b0" font-family="Consolas, monospace" font-size="9" font-weight="700">3/4 CORRECT</text>

    <path d="M210 270 C210 292 202 306 194 322" fill="none" stroke="#ff9b73" stroke-width="1.7" stroke-dasharray="6 5" marker-end="url(#ogArrowCoral)"/>
    <text x="232" y="318" fill="#ffbea3" font-family="Consolas, monospace" font-size="9" font-weight="700">DIAGNOSTIC SIGNAL</text>
    <text x="116" y="344" fill="#ffbea3" font-family="Consolas, monospace" font-size="10" font-weight="700">ADDS DENOMINATORS</text>
    <text x="140" y="358" fill="#ffbea3" font-family="Consolas, monospace" font-size="9" font-weight="700">MISCONCEPTION</text>
    <path d="M204 292 L306 292" fill="none" stroke="#b9a1ff" stroke-width="1.7" marker-end="url(#ogArrowViolet)"/>
    <text x="286" y="274" fill="#b9a1ff" font-family="Consolas, monospace" font-size="10" font-weight="700">REPAIR</text>
    <path d="M330 280 C330 214 258 164 202 146" fill="none" stroke="#b9a1ff" stroke-width="1.7" marker-end="url(#ogArrowViolet)"/>

    <line x1="28" y1="382" x2="60" y2="382" stroke="#7dd7e8" stroke-width="2" stroke-opacity="0.72"/>
    <text x="68" y="386" fill="#d8eef7" font-family="Consolas, monospace" font-size="10" font-weight="700">KNOWLEDGE</text>
    <line x1="176" y1="382" x2="208" y2="382" stroke="#ff9b73" stroke-width="2" stroke-dasharray="7 7" stroke-opacity="0.85"/>
    <text x="216" y="386" fill="#ffbea3" font-family="Consolas, monospace" font-size="10" font-weight="700">SIGNAL</text>
    <line x1="306" y1="382" x2="338" y2="382" stroke="#b9a1ff" stroke-width="2" stroke-opacity="0.78"/>
    <text x="346" y="386" fill="#d8eef7" font-family="Consolas, monospace" font-size="10" font-weight="700">REPAIR</text>
  </g>
</svg>
