<svg xmlns="http://www.w3.org/2000/svg" width="1200" height="630" viewBox="0 0 1200 630" role="img" aria-labelledby="title desc">
  <title id="title">Pondera</title>
  <desc id="desc">A graph-first maths project for curriculum ontology, diagnostics, and evidence trails.</desc>
  <defs>
    <radialGradient id="bg" cx="54%" cy="38%" r="88%">
      <stop offset="0" stop-color="#17364c"/>
      <stop offset="0.52" stop-color="#10283a"/>
      <stop offset="1" stop-color="#07121d"/>
    </radialGradient>
    <linearGradient id="panel" x1="0" x2="1" y1="0" y2="1">
      <stop offset="0" stop-color="#153044" stop-opacity="0.92"/>
      <stop offset="1" stop-color="#081724" stop-opacity="0.96"/>
    </linearGradient>
    <filter id="softGlow" x="-80%" y="-80%" width="260%" height="260%">
      <feGaussianBlur stdDeviation="5" result="blur"/>
      <feMerge>
        <feMergeNode in="blur"/>
        <feMergeNode in="SourceGraphic"/>
      </feMerge>
    </filter>
    <pattern id="grid" width="46" height="46" patternUnits="userSpaceOnUse">
      <path d="M46 0H0V46" fill="none" stroke="#d8eef7" stroke-opacity="0.045" stroke-width="1"/>
    </pattern>
  </defs>

  <rect width="1200" height="630" fill="url(#bg)"/>
  <rect width="1200" height="630" fill="url(#grid)" opacity="0.72"/>

  <g opacity="0.62">
    <circle cx="68" cy="86" r="1.4" fill="#fff5dc"/>
    <circle cx="174" cy="182" r="1.1" fill="#d8eef7"/>
    <circle cx="304" cy="66" r="1.5" fill="#fff5dc"/>
    <circle cx="496" cy="138" r="1.2" fill="#d8eef7"/>
    <circle cx="764" cy="92" r="1.6" fill="#fff5dc"/>
    <circle cx="1088" cy="118" r="1.3" fill="#d8eef7"/>
    <circle cx="1134" cy="344" r="1.5" fill="#fff5dc"/>
    <circle cx="944" cy="548" r="1.1" fill="#d8eef7"/>
    <circle cx="636" cy="568" r="1.4" fill="#fff5dc"/>
    <circle cx="206" cy="524" r="1.1" fill="#d8eef7"/>
  </g>

  <rect x="38" y="34" width="1124" height="562" fill="none" stroke="#d8eef7" stroke-opacity="0.28"/>

  <g transform="translate(72 62)">
    <g transform="scale(0.78)">
      <line x1="22" y1="60" x2="78" y2="38" stroke="#fff5dc" stroke-width="2.75" stroke-linecap="round"/>
      <circle cx="22" cy="60" r="14" fill="#5fc9d6" stroke="#d8eef7" stroke-width="2.25"/>
      <circle cx="22" cy="60" r="5.2" fill="#091522" opacity="0.72"/>
      <circle cx="78" cy="38" r="7.5" fill="#091522" stroke="#e58a5a" stroke-width="2.75"/>
      <circle cx="78" cy="38" r="2.45" fill="#e58a5a"/>
      <polyline points="76,45 68,62 76,68 60,86" fill="none" stroke="#e58a5a" stroke-width="2.35" stroke-linecap="round" stroke-linejoin="round"/>
      <circle cx="60" cy="86" r="5" fill="#091522" stroke="#e58a5a" stroke-width="2.25"/>
    </g>
    <text x="82" y="42" fill="#fff5dc" font-family="Georgia, serif" font-size="38" font-weight="600">Pondera</text>
    <text x="0" y="106" fill="#7dd7e8" font-family="Consolas, monospace" font-size="15" font-weight="700" letter-spacing="2.3">GRAPH-FIRST MATHS PROJECT</text>
  </g>

  <g transform="translate(72 218)">
    <text x="0" y="0" fill="#fff5dc" font-family="Georgia, serif" font-size="62">Curriculum as an</text>
    <text x="0" y="66" fill="#fff5dc" font-family="Georgia, serif" font-size="62">inspectable</text>
    <text x="0" y="132" fill="#fff5dc" font-family="Georgia, serif" font-size="62">knowledge</text>
    <text x="0" y="198" fill="#fff5dc" font-family="Georgia, serif" font-size="62">constellation.</text>
    <text x="2" y="258" fill="#a9b7bc" font-family="Inter, Arial, sans-serif" font-size="22">Graph-first K-12 maths ontology,</text>
    <text x="2" y="288" fill="#a9b7bc" font-family="Inter, Arial, sans-serif" font-size="22">diagnostics, and evidence trails.</text>
  </g>

  <g transform="translate(72 514)">
    <rect x="0" y="0" width="156" height="58" fill="#0b1b29" stroke="#7dd7e8" stroke-opacity="0.5"/>
    <text x="18" y="27" fill="#fff5dc" font-family="Georgia, serif" font-size="25" font-weight="700">2,600+</text>
    <text x="18" y="45" fill="#d8eef7" font-family="Consolas, monospace" font-size="10" letter-spacing="1.4">GRAPH NODES</text>
    <rect x="174" y="0" width="156" height="58" fill="#0b1b29" stroke="#7dd7e8" stroke-opacity="0.5"/>
    <text x="192" y="27" fill="#fff5dc" font-family="Georgia, serif" font-size="25" font-weight="700">4,400+</text>
    <text x="192" y="45" fill="#d8eef7" font-family="Consolas, monospace" font-size="10" letter-spacing="1.4">AUTHORED EDGES</text>
    <rect x="348" y="0" width="156" height="58" fill="#0b1b29" stroke="#7dd7e8" stroke-opacity="0.5"/>
    <text x="366" y="27" fill="#fff5dc" font-family="Georgia, serif" font-size="25" font-weight="700">K-12</text>
    <text x="366" y="45" fill="#d8eef7" font-family="Consolas, monospace" font-size="10" letter-spacing="1.4">MATHS GRAPH</text>
  </g>

  <g transform="translate(642 118)">
    <rect x="0" y="0" width="482" height="398" fill="url(#panel)" stroke="#d8eef7" stroke-opacity="0.28"/>
    <text x="28" y="36" fill="#d8eef7" fill-opacity="0.76" font-family="Consolas, monospace" font-size="12" font-weight="700" letter-spacing="1.7">LOCAL DIAGNOSTIC CONSTELLATION</text>
    <text x="28" y="56" fill="#d8eef7" fill-opacity="0.66" font-family="Consolas, monospace" font-size="11" font-weight="700" letter-spacing="1.5">KNOWLEDGE / SIGNAL / REPAIR</text>
    <line x1="0" y1="70" x2="482" y2="70" stroke="#d8eef7" stroke-opacity="0.16"/>
    <marker id="ogArrowBlue" markerWidth="8" markerHeight="8" refX="7" refY="4" orient="auto">
      <path d="M0,0 L8,4 L0,8 Z" fill="#7dd7e8" opacity="0.72"/>
    </marker>
    <marker id="ogArrowCoral" markerWidth="8" markerHeight="8" refX="7" refY="4" orient="auto">
      <path d="M0,0 L8,4 L0,8 Z" fill="#ff9b73" opacity="0.9"/>
    </marker>
    <marker id="ogArrowViolet" markerWidth="8" markerHeight="8" refX="7" refY="4" orient="auto">
      <path d="M0,0 L8,4 L0,8 Z" fill="#b9a1ff" opacity="0.86"/>
    </marker>

    <circle cx="244" cy="224" r="158" fill="none" stroke="#d8eef7" stroke-opacity="0.08"/>
    <circle cx="244" cy="224" r="92" fill="none" stroke="#d8eef7" stroke-opacity="0.08" stroke-dasharray="5 9"/>

    <path d="M68 204 C116 144 146 126 164 122" fill="none" stroke="#7dd7e8" stroke-width="2" stroke-opacity="0.62" marker-end="url(#ogArrowBlue)"/>
    <path d="M188 124 C218 132 238 148 252 168" fill="none" stroke="#7dd7e8" stroke-width="2" stroke-opacity="0.62" marker-end="url(#ogArrowBlue)"/>
    <path d="M276 176 C322 158 354 160 388 174" fill="none" stroke="#8ee0b0" stroke-width="2" stroke-opacity="0.58" marker-end="url(#ogArrowBlue)"/>
    <path d="M392 198 C352 232 314 256 270 266" fill="none" stroke="#ff9b73" stroke-width="2" stroke-dasharray="7 7" stroke-opacity="0.82" marker-end="url(#ogArrowCoral)"/>
    <path d="M248 274 C210 280 180 278 154 274" fill="none" stroke="#ff9b73" stroke-width="2" stroke-dasharray="7 7" stroke-opacity="0.82" marker-end="url(#ogArrowCoral)"/>
    <path d="M146 254 C152 208 158 162 168 136" fill="none" stroke="#ff9b73" stroke-width="1.7" stroke-dasharray="7 7" stroke-opacity="0.72" marker-end="url(#ogArrowCoral)"/>
    <path d="M160 282 C228 320 316 318 392 292" fill="none" stroke="#b9a1ff" stroke-width="2" stroke-opacity="0.72" marker-end="url(#ogArrowViolet)"/>
    <path d="M390 260 C334 174 262 98 184 122" fill="none" stroke="#b9a1ff" stroke-width="1.7" stroke-opacity="0.58" marker-end="url(#ogArrowViolet)"/>

    <g filter="url(#softGlow)">
      <circle cx="70" cy="202" r="12" fill="#7dd7e8"/>
      <circle cx="176" cy="122" r="12" fill="#7dd7e8"/>
      <circle cx="264" cy="176" r="15" fill="#fff5dc"/>
      <circle cx="398" cy="180" r="12" fill="#8ee0b0"/>
      <circle cx="260" cy="270" r="12" fill="#ff9b73"/>
      <circle cx="146" cy="272" r="14" fill="#ff9b73"/>
      <circle cx="404" cy="284" r="12" fill="#b9a1ff"/>
    </g>

    <text x="32" y="232" fill="#d8eef7" font-family="Consolas, monospace" font-size="11" font-weight="700">UNIT FRACTIONS</text>
    <text x="116" y="104" fill="#d8eef7" font-family="Consolas, monospace" font-size="11" font-weight="700">DENOMINATOR MEANING</text>
    <text x="214" y="156" fill="#fff5dc" font-family="Consolas, monospace" font-size="11" font-weight="700">ADD SAME DENOMINATORS</text>
    <text x="348" y="210" fill="#d8eef7" font-family="Consolas, monospace" font-size="11" font-weight="700">EVIDENCE EVENT</text>
    <text x="222" y="302" fill="#ffbea3" font-family="Consolas, monospace" font-size="11" font-weight="700">3/8 RESPONSE</text>
    <text x="76" y="304" fill="#ffbea3" font-family="Consolas, monospace" font-size="11" font-weight="700">ADDS DENOMINATORS</text>
    <text x="78" y="320" fill="#ffbea3" font-family="Consolas, monospace" font-size="11" font-weight="700">MISCONCEPTION</text>
    <text x="350" y="318" fill="#d8eef7" font-family="Consolas, monospace" font-size="11" font-weight="700">REPAIR CARD</text>

    <line x1="28" y1="362" x2="60" y2="362" stroke="#7dd7e8" stroke-width="2" stroke-opacity="0.72"/>
    <text x="68" y="366" fill="#d8eef7" font-family="Consolas, monospace" font-size="10" font-weight="700">KNOWLEDGE</text>
    <line x1="176" y1="362" x2="208" y2="362" stroke="#ff9b73" stroke-width="2" stroke-dasharray="7 7" stroke-opacity="0.85"/>
    <text x="216" y="366" fill="#ffbea3" font-family="Consolas, monospace" font-size="10" font-weight="700">SIGNAL</text>
    <line x1="306" y1="362" x2="338" y2="362" stroke="#b9a1ff" stroke-width="2" stroke-opacity="0.78"/>
    <text x="346" y="366" fill="#d8eef7" font-family="Consolas, monospace" font-size="10" font-weight="700">REPAIR</text>
  </g>
</svg>
