<svg xmlns="http://www.w3.org/2000/svg" width="1200" height="630" viewBox="0 0 1200 630" role="img" aria-labelledby="title desc">
  <title id="title">Pondera</title>
  <desc id="desc">Pondera turns curriculum into a navigable knowledge constellation.</desc>
  <defs>
    <radialGradient id="bg" cx="58%" cy="35%" r="82%">
      <stop offset="0" stop-color="#17364c"/>
      <stop offset="0.55" stop-color="#0f2131"/>
      <stop offset="1" stop-color="#091522"/>
    </radialGradient>
    <filter id="glow" x="-60%" y="-60%" width="220%" height="220%">
      <feGaussianBlur stdDeviation="6" result="blur"/>
      <feMerge>
        <feMergeNode in="blur"/>
        <feMergeNode in="SourceGraphic"/>
      </feMerge>
    </filter>
  </defs>
  <rect width="1200" height="630" fill="url(#bg)"/>
  <g opacity="0.5">
    <circle cx="120" cy="90" r="1.6" fill="#fff5dc"/>
    <circle cx="260" cy="132" r="1.2" fill="#d8eef7"/>
    <circle cx="442" cy="76" r="1.4" fill="#fff5dc"/>
    <circle cx="796" cy="112" r="1.6" fill="#d8eef7"/>
    <circle cx="1010" cy="86" r="1.3" fill="#fff5dc"/>
    <circle cx="1084" cy="294" r="1.5" fill="#d8eef7"/>
    <circle cx="186" cy="502" r="1.2" fill="#fff5dc"/>
    <circle cx="616" cy="542" r="1.6" fill="#d8eef7"/>
    <circle cx="942" cy="510" r="1.1" fill="#fff5dc"/>
  </g>
  <rect x="72" y="56" width="44" height="44" fill="rgba(125,215,232,0.08)" stroke="#7dd7e8" stroke-width="2"/>
  <text x="94" y="84" fill="#7dd7e8" font-family="Consolas, monospace" font-size="15" text-anchor="middle">P</text>
  <text x="132" y="88" fill="#fff5dc" font-family="Georgia, serif" font-size="34" font-weight="600">Pondera</text>
  <text x="72" y="154" fill="#7dd7e8" font-family="Consolas, monospace" font-size="17" font-weight="600">LEARNING SYSTEMS LABORATORY</text>
  <text x="72" y="248" fill="#fff5dc" font-family="Georgia, serif" font-size="74">Curriculum as a</text>
  <text x="72" y="328" fill="#fff5dc" font-family="Georgia, serif" font-size="74">navigable knowledge</text>
  <text x="72" y="408" fill="#fff5dc" font-family="Georgia, serif" font-size="74">constellation.</text>
  <text x="76" y="474" fill="#a9b7bc" font-family="Inter, Arial, sans-serif" font-size="25">Graph-first K-12 maths traversal, diagnostics, and review.</text>
  <g transform="translate(710 128)">
    <path d="M20 256 C112 130 180 92 268 146" fill="none" stroke="#7dd7e8" stroke-width="2" opacity="0.58"/>
    <path d="M268 146 C342 84 418 76 456 20" fill="none" stroke="#7dd7e8" stroke-width="2" opacity="0.5"/>
    <path d="M268 146 C336 194 404 220 486 218" fill="none" stroke="#7dd7e8" stroke-width="2" opacity="0.55"/>
    <path d="M116 332 C224 300 314 312 408 382" fill="none" stroke="#ff9b73" stroke-width="2" opacity="0.68"/>
    <path d="M20 256 C184 276 318 268 486 218" fill="none" stroke="#d8eef7" stroke-width="1.4" opacity="0.32"/>
    <g filter="url(#glow)">
      <circle cx="20" cy="256" r="12" fill="#8ee0b0"/>
      <circle cx="160" cy="60" r="12" fill="#7dd7e8"/>
      <circle cx="268" cy="146" r="16" fill="#fff5dc"/>
      <circle cx="456" cy="20" r="12" fill="#ff9b73"/>
      <circle cx="486" cy="218" r="12" fill="#8ee0b0"/>
      <circle cx="116" cy="332" r="12" fill="#b9a1ff"/>
      <circle cx="408" cy="382" r="12" fill="#7dd7e8"/>
    </g>
    <text x="-6" y="286" fill="#d8eef7" font-family="Consolas, monospace" font-size="13">NUMBER</text>
    <text x="118" y="40" fill="#d8eef7" font-family="Consolas, monospace" font-size="13">FRACTIONS</text>
    <text x="214" y="126" fill="#d8eef7" font-family="Consolas, monospace" font-size="13">DIAGNOSTIC CORE</text>
    <text x="418" y="0" fill="#d8eef7" font-family="Consolas, monospace" font-size="13">ALGEBRA</text>
    <text x="446" y="250" fill="#d8eef7" font-family="Consolas, monospace" font-size="13">FUNCTIONS</text>
    <text x="68" y="364" fill="#d8eef7" font-family="Consolas, monospace" font-size="13">MISCONCEPTIONS</text>
    <text x="364" y="416" fill="#d8eef7" font-family="Consolas, monospace" font-size="13">CALCULUS</text>
  </g>
</svg>
